<?xml version="1.0" standalone="no"?><!DOCTYPE svg PUBLIC "-//W3C//DTD SVG 1.1//EN" "http://www.w3.org/Graphics/SVG/1.1/DTD/svg11.dtd"><svg t="1774860481454" class="icon" viewBox="0 0 1024 1024" version="1.1" xmlns="http://www.w3.org/2000/svg" p-id="27508" xmlns:xlink="http://www.w3.org/1999/xlink" width="200" height="200"><path d="M894.933333 810.666667a128 128 0 0 1-128 128h-512a128 128 0 0 1-128-128v-341.333334a382.293333 382.293333 0 0 1 75.008-228.053333 35.328 35.328 0 0 1-4.778666-4.010667L136.832 176.896a42.666667 42.666667 0 0 1 60.330667-60.330667l60.373333 60.330667 1.92 2.218667A382.506667 382.506667 0 0 1 510.933333 85.333333c96.170667 0 184.064 35.328 251.434667 93.738667l1.962667-2.133333 60.330666-60.373334a42.666667 42.666667 0 0 1 60.373334 60.330667l-60.373334 60.373333a43.008 43.008 0 0 1-4.736 4.096A381.866667 381.866667 0 0 1 894.933333 469.333333v341.333334z m-682.666666-256v256a42.666667 42.666667 0 0 0 37.674666 42.368l4.992 0.298666h512a42.666667 42.666667 0 0 0 42.368-37.674666l0.298667-4.992v-256h-597.333333z m298.666666-384a298.666667 298.666667 0 0 0-298.496 288.426666l-0.170666 10.24h597.333333a298.666667 298.666667 0 0 0-298.666667-298.666666z m-128 128a42.666667 42.666667 0 1 1 0 85.333333 42.666667 42.666667 0 0 1 0-85.333333z m256 0a42.666667 42.666667 0 1 1 0 85.333333 42.666667 42.666667 0 0 1 0-85.333333z" fill="#1296db" p-id="27509"></path></svg>