<?xml version="1.0" standalone="no"?><!DOCTYPE svg PUBLIC "-//W3C//DTD SVG 1.1//EN" "http://www.w3.org/Graphics/SVG/1.1/DTD/svg11.dtd"><svg t="1774860402789" class="icon" viewBox="0 0 1024 1024" version="1.1" xmlns="http://www.w3.org/2000/svg" p-id="24318" xmlns:xlink="http://www.w3.org/1999/xlink" width="200" height="200"><path d="M917.333333 746.666667H622.826667c12.693333 70.421333 54.890667 118.869333 93.888 149.333333H768a21.333333 21.333333 0 1 1 0 42.666667H256a21.333333 21.333333 0 1 1 0-42.666667h51.264c38.976-30.464 81.216-78.912 93.888-149.333333H106.666667a85.333333 85.333333 0 0 1-85.333334-85.333334V170.666667a85.333333 85.333333 0 0 1 85.333334-85.333334h810.666666a85.333333 85.333333 0 0 1 85.333334 85.333334v490.666666a85.333333 85.333333 0 0 1-85.333334 85.333334z m-546.197333 149.333333h281.706667c-34.026667-35.882667-64.32-84.821333-73.792-149.333333h-134.122667c-9.472 64.512-39.765333 113.450667-73.792 149.333333zM960 170.666667a42.666667 42.666667 0 0 0-42.666667-42.666667H106.666667a42.666667 42.666667 0 0 0-42.666667 42.666667v405.333333h896V170.666667z m0 448H64v42.666666a42.666667 42.666667 0 0 0 42.666667 42.666667h810.666666a42.666667 42.666667 0 0 0 42.666667-42.666667v-42.666666z m-448 64a21.333333 21.333333 0 1 1 0-42.666667 21.333333 21.333333 0 1 1 0 42.666667z" fill="#1296db" p-id="24319"></path></svg>